<svg xmlns="http://www.w3.org/2000/svg" width="160" height="160" viewBox="0 0 160 160" role="img" aria-label="ISO 27001">
  <defs>
    <linearGradient id="g" x1="0" y1="0" x2="1" y2="1">
      <stop offset="0" stop-color="#0066CC"/>
      <stop offset="1" stop-color="#00A8E8"/>
    </linearGradient>
  </defs>
  <rect x="8" y="8" width="144" height="144" rx="28" fill="#FFFFFF" stroke="url(#g)" stroke-width="6"/>
  <path d="M80 34l36 18v26c0 30-19 57-36 60-17-3-36-30-36-60V52l36-18z" fill="none" stroke="url(#g)" stroke-width="6" stroke-linejoin="round"/>
  <path d="M70 84a10 10 0 1 1 20 0v9a4 4 0 0 1-4 4H74a4 4 0 0 1-4-4v-9z" fill="none" stroke="#1E3A5F" stroke-width="6" stroke-linejoin="round"/>
  <path d="M75 84v-3a5 5 0 0 1 10 0v3" fill="none" stroke="#1E3A5F" stroke-width="6" stroke-linecap="round"/>
  <text x="80" y="126" text-anchor="middle" font-family="Inter, Arial, sans-serif" font-size="26" font-weight="800" fill="#1E3A5F">ISO</text>
  <text x="80" y="148" text-anchor="middle" font-family="Inter, Arial, sans-serif" font-size="18" font-weight="700" fill="#4A5568">27001</text>
</svg>
